<?xml version="1.0" standalone="no"?>
<!DOCTYPE svg PUBLIC "-//W3C//DTD SVG 20010904//EN"
 "http://www.w3.org/TR/2001/REC-SVG-20010904/DTD/svg10.dtd">
<svg version="1.0" xmlns="http://www.w3.org/2000/svg"
 width="687.000000pt" height="687.000000pt" viewBox="0 0 687.000000 687.000000"
 preserveAspectRatio="xMidYMid meet">
<metadata>
Created by potrace 1.14, written by Peter Selinger 2001-2017
</metadata>
<g transform="translate(0.000000,687.000000) scale(0.100000,-0.100000)"
fill="#000000" stroke="none">
<path d="M0 3435 l0 -3435 3435 0 3435 0 0 3435 0 3435 -3435 0 -3435 0 0
-3435z m5432 2734 c245 -51 437 -288 438 -540 0 -71 -32 -196 -67 -262 -39
-74 -155 -188 -229 -225 -155 -78 -334 -83 -488 -12 -61 28 -156 102 -191 149
-16 22 -34 41 -38 41 -4 0 -209 -70 -455 -156 -543 -189 -1175 -409 -1777
-619 -247 -86 -493 -172 -545 -190 -52 -18 -151 -53 -220 -77 l-125 -43 -7
-85 c-6 -81 -42 -204 -69 -237 -9 -10 -4 -21 19 -48 82 -92 2124 -2245 2130
-2245 5 0 12 4 18 9 18 17 134 50 201 56 134 13 302 -44 409 -138 58 -51 118
-140 151 -225 23 -59 27 -82 27 -182 0 -137 -20 -207 -91 -312 -84 -127 -209
-207 -366 -234 -77 -13 -97 -13 -174 0 -153 26 -282 107 -364 227 -108 159
-128 355 -54 532 15 34 27 67 28 73 2 9 -684 738 -1916 2039 -128 134 -226
229 -235 229 -10 -1 -44 -12 -77 -24 -72 -28 -215 -38 -297 -21 -132 28 -275
127 -349 243 -138 214 -108 498 71 679 79 80 153 123 256 149 98 25 170 25
268 0 108 -27 169 -63 255 -147 40 -40 77 -73 82 -73 4 0 149 49 321 109 348
121 1332 464 2446 852 l352 123 0 59 c0 236 186 465 423 523 66 16 171 17 239
3z"/>
</g>
</svg>
